<?xml version="1.0" encoding="utf-8"?>
<!-- Generator: Adobe Illustrator 22.1.0, SVG Export Plug-In . SVG Version: 6.00 Build 0)  -->
<svg version="1.1" id="Layer_1" xmlns="http://www.w3.org/2000/svg" xmlns:xlink="http://www.w3.org/1999/xlink" x="0px" y="0px"
	 viewBox="0 0 352.9 68.4" style="enable-background:new 0 0 352.9 68.4;" xml:space="preserve">
<style type="text/css">
	.st0{fill:#FFFFFF;}
</style>
<path class="st0" d="M29.2,50.6c-1.2,1.8-1.7,2.9-1.7,3.5c0,0.5,0.2,0.9,0.6,1.2c0,0-0.4,0.4-1.3,1.1C26,56.8,25.2,57,24.2,57
	s-1.7-0.1-2.1-0.3c-0.4-0.2-0.6-0.6-0.4-1c0.7-2.2,3.2-6.5,7.6-13s7.3-11.1,8.8-13.8c3.2-5.8,4.8-10.4,4.8-13.9
	c0-1.4-0.2-2.7-0.7-3.7c-1-2-3.2-3-6.8-3c-5.6,0-11.4,2.4-17.4,7.3c-4.8,3.9-8.5,8-11,12.3s-3.8,8.2-3.8,11.6c0,4.9,2.2,7.4,6.5,7.5
	h0.6c5.5,0,9.8-2,12.8-6c1.2-1.6,1.7-2.9,1.7-4s-0.2-1.8-0.7-2.1c0,0-0.1-0.1-0.1-0.3c0-0.1,0.1-0.2,0.4-0.2c1.2,0,1.9,0.8,1.9,2.4
	c0,1-0.5,2.4-1.5,4.1s-2.7,3.4-5.2,4.9s-5.4,2.4-8.7,2.4s-6-1-7.9-3.1S0,40.3,0,37c0-7.6,4.9-15.3,14.8-23.3c2.5-2,5.9-3.7,10-5
	c4.2-1.3,8.1-1.9,11.9-1.9s6.4,0.7,7.7,2c1.4,1.3,2.1,3.1,2.1,5.3c0,3.4-1.4,7.9-4.1,13.6c-0.9,1.8-2.8,5-5.8,9.7l5.5-7.1
	c2.7-3.5,7.3-8.5,14-15c1.4-1.4,3-2.6,4.8-3.5s3.3-1.4,4.5-1.4c1.7,0,2.6,0.9,2.6,2.7c0,1.6-0.8,4-2.3,7.2s-3,6.2-4.6,9.1
	c-1.5,2.9-2.5,4.7-2.8,5.6c-0.3,0.9-0.6,1.6-0.7,2.1s-0.2,0.8-0.3,0.9c0.1-0.2,1.7-2.1,4.8-5.5c3-3.4,7.5-7.7,13.4-12.9L87,10.1
	c0.9-0.8,1.7-1.2,2.4-1.2c0.7,0,1.3,0.6,1.8,1.8c0.5,1.2,0.7,2.2,0.7,2.9s-1.2,2.3-3.5,4.6c-6,6.1-11.1,12.9-15.3,20.2
	S66.8,50.9,66.8,54c0,0.8,0.1,1.4,0.4,1.7c0.3,0.3,0.7,0.4,1.4,0.3c0.7-0.1,1.9-0.6,3.9-1.5s3.3-1.4,3.9-1.5
	c0.2,0.1,0.4,0.2,0.4,0.4c0,0.7-1.3,1.7-3.8,3s-4.4,1.9-5.7,1.9c-1.3,0-2.1-0.2-2.3-0.6c-0.9-1.2-1.3-2.8-1.3-4.5
	c0-4.1,2.2-10.1,6.6-17.8c2.8-4.8,7.2-11.4,13.1-19.6c-4.6,3.7-10.8,9.5-18.7,17.2s-13,13.8-15.5,18.1c-1.2,2.3-2.8,3.4-4.5,3.4
	c-0.8,0-1.2-0.3-1.2-0.9c0-0.2,0.5-1.1,1.5-2.6s3.1-5.1,6.4-10.8c8.3-14.4,12.4-23,12.4-25.9c0-0.8-0.3-1.2-0.8-1.2
	c-0.8,0-1.9,0.6-3.4,1.9c-5.3,4.5-11,10.3-17,17.5C36.7,39.9,32.2,45.8,29.2,50.6L29.2,50.6z M79.7,62c2.3,2.9,4.3,4.3,6,4.3
	c2.7,0,5.7-2.2,8.9-6.6c2.3-3.2,4.6-7.3,6.8-12.2l2.7-6.6l-10.7,8.3c-3.3,2.5-5.9,3.8-7.8,3.8c-1.1,0-1.9-0.4-2.5-1.1
	s-0.9-1.5-0.9-2.4c0-2.1,1.8-5.5,5.3-10.2c3.6-4.7,6.1-7.1,7.8-7.1c1.6,0,2.4,0.6,2.4,1.7c0,0.4-2.1,2.9-6.4,7.5
	c-4.2,4.5-6.4,7.6-6.4,9.2c0,0.6,0.4,0.9,1.2,0.9c1.5,0,4.6-1.8,9.3-5.4c4.6-3.6,8.1-6.6,10.5-8.9c0.5-0.6,1.3-1.6,2.2-2.8
	c0.9-1.1,1.9-1.6,3-1.6s1.7,0.5,1.7,1.6c0,0.2-1.1,1.9-3.2,5.1s-3.3,4.9-3.4,5.1c-1.5,2.9-3.8,7.1-6.8,12.6
	c-4.7,7.5-9.3,11.2-14,11.2c-1.5,0-2.9-0.7-4-2C80.2,65,79.5,63.5,79.7,62L79.7,62z M190.8,3.4c1,0,1.5,0.4,1.5,1.1
	c0,2.9-4,11.3-12.1,25.1c0.3,1.3,0.9,2.8,1.6,4.5l21.5-16.3c8.2-6.2,13.8-10.2,16.6-12C226.3,2,232.6,0,238.8,0
	c1.8,0,3.4,0.3,4.9,0.9c0.9,0.3,1.4,1,1.4,1.9s-0.2,1.4-0.7,1.4c-0.3,0-0.6-0.2-0.9-0.6S242.3,3,240.8,3s-4,0.4-7.4,1.2
	c-5.4,1.2-11.5,3.9-18.3,8.1c-4.3,2.6-10,6.7-17.1,12.2c-7.2,5.5-12.3,9.2-15.5,11.3c2.4,5.1,5.6,9.9,9.4,14.3
	c5.9,6.9,11.2,10.3,15.9,10.3c2.3,0,3.5-0.9,3.5-2.7c0-0.3,0-0.7-0.1-1s0-0.7,0.3-1.2c0.2-0.5,0.5-0.7,0.9-0.7c0.6,0,1,0.7,1.2,2.2
	c0,0.2,0.1,0.5,0.1,0.7c0,1.5-0.8,2.8-2.3,3.8c-1.6,1-3.4,1.5-5.5,1.5s-3.9-0.3-5.4-1c-3.8-1.9-7.6-5.2-11.5-9.9s-6.8-9.6-8.9-14.8
	c-2.6,1.5-4.8,2.4-6.6,2.5c-3.2,4.2-7.2,8.2-11.9,12.2c-2.5,2.2-5.3,3.9-8.3,5.2c-3,1.3-5.8,2-8.6,2c-3.9,0-6.9-1-9-2.9
	s-3.2-4.9-3.2-8.9c0-2,0.4-3.8,1.2-5.5c2.4-5.4,6.1-9.2,11.1-11.2c2.7-1.2,5.5-1.8,8.2-1.8s4.5,0.9,5.4,2.7c0.3,0.6,0.5,1.3,0.5,2
	s-0.1,1.1-0.3,1.3s-0.5,0-0.8-0.5c-1.2-2.1-2.4-3.3-3.7-3.5c-0.9-0.1-1.5-0.1-1.9-0.1c-3.7,0-7.2,1.6-10.5,4.7
	c-4.2,4.1-6.3,8.5-6.3,13.2c0,5.2,2.9,8.1,8.8,8.8h0.6c2.1,0,4.8-0.9,8.1-2.8c5.4-3.1,11.1-8.4,17.2-15.8c-1.1-1-1.7-2.5-1.7-4.5
	s0.7-3.8,2.2-5.6s3.5-2.6,6-2.6c0.7,0,1.4,0.1,2,0.2c2.4-4,4.7-8.4,7-13.1s3.4-7.4,3.4-8.1c0-0.1-0.1-0.1-0.4-0.1
	c-0.3,0-2,0.8-5,2.3s-5.2,2.7-6.5,3.6s-2.9,2.2-4.8,4.1c-1.9,1.8-2.8,3.3-2.8,4.5c0,0.5,0.4,1.1,1.1,1.6s2.1,0.8,4.1,0.8
	c0.2,0.1,0.4,0.2,0.4,0.4s-0.7,0.4-2,0.6c-1.3,0.2-2.4,0.3-3.1,0.3c-1.7,0-2.6-0.7-2.6-2.2c0-1.7,1-3.7,3.1-6
	c2.1-2.4,4.3-4.2,6.8-5.5C184.3,5.3,188.8,3.4,190.8,3.4L190.8,3.4z M179.3,35.6c-0.4-1-0.7-1.9-0.9-2.9c-1,1.4-1.9,2.8-2.9,4.1
	c0.5,0,0.9,0,1.3-0.1S178,36.3,179.3,35.6z M176.7,29.4c-0.6-0.2-1.2-0.4-1.9-0.4s-1.4,0.4-2.1,1.3c-0.7,0.9-1,1.8-1,2.8
	s0.3,1.8,0.8,2.5C174.7,32.3,176.2,30.2,176.7,29.4z M219.2,24.8c0.6,0.5,1,1,1,1.6s-0.3,1.2-0.9,1.6c-0.6,0.5-1.3,0.7-2,0.7
	s-1.4-0.3-2-0.8s-0.9-1.1-0.9-1.8c0-1.3,0.9-2,2.7-2C217.8,24.2,218.5,24.4,219.2,24.8L219.2,24.8z M204,54.3
	c-2.4,0-3.7-1.6-3.7-4.8c0-2.6,1.4-6.2,4.2-10.8s5.1-6.9,6.8-6.9c0.5,0,1,0.2,1.6,0.6c0.6,0.4,0.9,0.8,0.9,1.2
	c-0.2,0.3-0.5,0.7-0.9,1.1s-0.7,0.9-1.1,1.3s-0.9,1.2-1.6,2.1s-1.3,1.7-1.9,2.6c-3.6,4.7-5.4,7.9-5.4,9.6c0,1.7,0.6,2.6,1.8,2.6
	c1,0,2.4-0.6,4.1-1.7c4-2.5,7.2-5.2,9.6-8.2c0.9-1.1,1.5-1.7,1.8-1.7s0.5,0.2,0.5,0.6c0,0.4-0.6,1.2-1.7,2.3c-1.1,1.2-2,2.1-2.6,2.7
	c-0.6,0.7-1.1,1.1-1.3,1.3s-0.7,0.6-1.3,1.2s-1.1,1-1.5,1.3c-0.3,0.2-0.8,0.6-1.4,1.1c-0.6,0.5-1.2,0.8-1.7,1s-1,0.5-1.7,0.8
	C206.7,54.1,205.5,54.3,204,54.3L204,54.3z M239.8,30.4l10.4-0.1c0.1,0.1,0.2,0.2,0.2,0.2c0,0.4-3,1-9,1.8s-9.2,1.2-9.7,1.4
	c-0.9,0.8-2.6,3.3-5,7.3c-2.4,4.1-3.7,7-3.7,8.9c0,1.8,1.2,2.7,3.7,2.7c1.2,0,2.7-0.4,4.5-1.1s3.3-1.4,4.3-2
	c2.7-1.7,5.6-4.2,8.6-7.4c0.7-0.7,1.1-1,1.4-1c0.1,0,0.2,0.1,0.2,0.4s-0.4,0.9-1.1,1.7c-2.5,3.1-5.3,5.5-8.4,7.4
	c-3.7,2.3-7.3,3.5-10.7,3.5c-1.5,0-2.7-0.3-3.6-1s-1.4-2-1.4-3.9c0-2,0.9-4.7,2.6-8.1c1.7-3.4,3-6,4-7.7c-0.7,0.1-1.2,0.2-1.7,0.2
	c-1.4,0-2.1-0.6-2.1-1.7c0-0.8,0.6-1.4,1.7-1.7c0.1,0,0.4,0,0.6-0.1h4.2c0.9-1.1,1.8-2.4,3-3.8c1.3-1.7,2.3-2.6,2.7-2.6
	s1.1,0.2,1.8,0.6c0.7,0.4,1.1,0.8,1.1,1.4c0,0.5-1.2,2.1-3.5,4.7C236.1,30.3,237.8,30.4,239.8,30.4L239.8,30.4z M251,54.5
	c-0.5,0-1-0.1-1.4-0.2c-3.1-0.9-4.6-2.6-4.6-5.2c0-3.4,2.1-7.2,6.3-11.7c4.2-4.4,8-6.6,11.4-6.6c1.1,0,2,0.3,2.7,0.9s1,1.4,1,2.4
	s-0.3,2.1-0.9,3.2c-0.6,1.1-1.6,1.7-2.8,1.7c-1.2,0-1.9-0.4-1.9-1.2c0-0.5,0.3-1.3,1-2.4s1-1.7,1-1.7c0-0.1-0.1-0.1-0.2-0.1
	c-1.3,0.1-3.2,1.1-5.5,2.9c-2.3,1.8-3.9,3.3-4.8,4.5l-2.8,4.1c-0.5,0.8-0.8,1.7-1,2.7s-0.3,1.8-0.3,2.4s0.3,1.1,0.9,1.8s1.5,1,2.6,1
	c2.4,0,5.4-1.4,8.9-4.2c3.6-2.8,6.3-5.5,8.2-8c0.2-0.3,0.5-0.4,0.9-0.4s0.5,0.1,0.5,0.3s-0.1,0.4-0.4,0.7c-2.6,3.5-5.8,6.6-9.5,9.2
	C256.6,53.3,253.5,54.5,251,54.5L251,54.5z M286.2,53.3c-2.8,0-4.2-1.7-4.2-5c0-1.9,0.7-3.9,2-6.2s2.9-5,4.9-8
	c-6.1,3.1-11.7,7.6-16.7,13.6c-2.8,4.2-4.4,6.3-4.9,6.3c-1.4,0-2.1-0.4-2.1-1.2c0-0.4,0.3-1.2,0.9-2.3c4.7-8.3,8.2-14.4,10.6-18.2
	c5.7-9.2,9.7-14.1,12.1-14.9c0.1,0,0.2-0.1,0.3-0.1c0.6,0,1.1,0.5,1.3,1.5c-0.1,1-2.6,4.7-7.5,10.9c-5,6.4-7.9,10.6-8.6,12.5
	c1.8-1.3,4.9-3.5,9.3-6.6c4.8-3.3,7.9-5,9.4-5s2.3,0.6,2.3,1.8c0,0.2,0,0.3,0,0.4c0,0.1-1.7,2.3-5,6.8s-5,7.8-5,9.9
	c0,1.1,0.4,1.7,1.2,1.7c2.6-0.1,6.5-3.2,11.7-9.4c0.4-0.4,0.8-0.6,1-0.6s0.3,0.1,0.3,0.4c0,1-2.4,3.6-7.1,7.8
	C289.2,52,287.2,53.3,286.2,53.3L286.2,53.3z M303,54.5c-0.5,0-1-0.1-1.4-0.2c-3.1-0.9-4.6-2.6-4.6-5.2c0-3.4,2.1-7.2,6.3-11.7
	c4.2-4.4,8-6.6,11.4-6.6c1.1,0,2,0.3,2.7,0.9s1,1.3,1,2.2c0,2.7-2,5.3-6.1,7.7s-7.4,3.7-9.9,3.7c-0.4,0-0.7,0-1-0.1
	c-0.7,1.3-1.1,2.7-1.1,4.1c0,2.5,1.2,3.7,3.6,3.7s5.5-1.6,9.3-4.8c2.9-2.4,5.4-4.8,7.5-7.5c0.4-0.6,0.8-0.9,1.1-0.9s0.5,0.1,0.5,0.4
	c0,0.3-0.2,0.7-0.6,1.2c-2.6,3.4-5.7,6.4-9.4,9.1C308.7,53.3,305.6,54.5,303,54.5L303,54.5z M316.6,33.7c0-0.6-0.6-0.9-1.8-0.9
	s-3,0.9-5.2,2.8c-3,2.5-5.4,5.1-7.1,7.8c0.3,0.1,0.6,0.1,0.9,0.1c1.8,0,4.3-1,7.3-2.9s5-4.1,5.7-6.4
	C316.6,34.1,316.6,33.9,316.6,33.7L316.6,33.7z M332.6,30.8c1.3,0,1.9,0.5,1.9,1.5c0,0.3-0.1,0.6-0.2,0.9c-4.3,6-6.9,10.5-7.8,13.6
	c11.2-11.2,18-16.8,20.4-16.8c0.2,0,0.5-0.1,0.6-0.1c1.3,0,2,0.6,2,1.8c0,0.2,0,0.5-0.1,0.7s-1.1,1.5-2.9,3.9
	c-2.1,2.5-3.9,4.9-5.4,7.2s-2.2,4.2-2.2,5.8c0,1.5,0.3,2.3,1,2.3c2.1,0,5.8-2.9,11-8.7c0.1-0.1,0.3-0.3,0.5-0.6
	c0.7-0.9,1.2-1.3,1.3-1.3c0.1,0,0.2,0.2,0.2,0.7s-0.3,1.1-1,1.9c-6,6.8-10.2,10.2-12.7,10.2c-2.4,0-3.5-1.3-3.5-3.9s1-5.6,2.9-8.9
	l4.6-7.5c-3.3,2.4-6.2,5-8.7,7.9s-4.9,5.6-6.9,8.3c-2,2.7-3.3,4-3.6,4c-0.7,0-1.3-0.3-1.7-0.9c-0.4-0.6-0.6-1.3-0.6-2.2
	s0.3-2.1,0.9-3.6s1.4-3.3,2.4-5.4l-4.3,4.5c-1.1,1.1-1.7,1.6-2,1.6s-0.4-0.2-0.4-0.5s0.2-0.7,0.6-1c1.8-1.8,3.3-3.5,4.6-5.1
	c1.2-1.6,3.8-4.8,7.7-9.4C331.7,31.1,332.1,30.8,332.6,30.8L332.6,30.8z"/>
</svg>
